<svg xmlns="http://www.w3.org/2000/svg" viewBox="0 0 863.79 226.89"><defs><style>.cls-1{fill:#fff;}</style></defs><g id="Layer_2" data-name="Layer 2"><g id="Layer_1-2" data-name="Layer 1"><path class="cls-1" d="M750.35,226.89H35V0H750.35a113.45,113.45,0,0,1,0,226.89ZM37.41,224.45H750.35a111,111,0,1,0,0-222H37.41Z"/><rect class="cls-1" x="23.58" y="0.03" width="2.44" height="226.32"/><rect class="cls-1" x="11.79" y="0.03" width="2.44" height="226.32"/><rect class="cls-1" y="0.03" width="2.44" height="226.32"/><path class="cls-1" d="M112.28,178.25c-11.4,0-18.21-32.95-18.21-64.81s6.81-64.81,18.21-64.81,18.22,33,18.22,64.81S123.69,178.25,112.28,178.25Zm0-127.18c-7.62,0-15.78,25.06-15.78,62.37s8.16,62.38,15.78,62.38,15.78-25.07,15.78-62.38S119.9,51.07,112.28,51.07Z"/><path class="cls-1" d="M94.86,178.25c-11.4,0-18.21-32.95-18.21-64.81s6.81-64.81,18.21-64.81,18.22,33,18.22,64.81S106.27,178.25,94.86,178.25Zm0-127.18c-7.62,0-15.78,25.06-15.78,62.37s8.16,62.38,15.78,62.38,15.79-25.07,15.79-62.38S102.49,51.07,94.86,51.07Z"/><path class="cls-1" d="M129.7,178.25c-11.4,0-18.22-32.95-18.22-64.81s6.82-64.81,18.22-64.81,18.22,33,18.22,64.81S141.11,178.25,129.7,178.25Zm0-127.18c-7.62,0-15.78,25.06-15.78,62.37s8.16,62.38,15.78,62.38,15.78-25.07,15.78-62.38S137.32,51.07,129.7,51.07Z"/><path class="cls-1" d="M147.12,178.25c-11.4,0-18.22-32.95-18.22-64.81s6.82-64.81,18.22-64.81,18.22,33,18.22,64.81S158.53,178.25,147.12,178.25Zm0-127.18c-7.62,0-15.78,25.06-15.78,62.37s8.16,62.38,15.78,62.38,15.78-25.07,15.78-62.38S154.74,51.07,147.12,51.07Z"/></g></g></svg>