<svg xmlns="http://www.w3.org/2000/svg" viewBox="0 0 828.82 227.06"><defs><style>.cls-1{fill:#fff;}</style></defs><g id="Layer_2" data-name="Layer 2"><g id="Layer_1-2" data-name="Layer 1"><path class="cls-1" d="M715.37,226.89H113.44A113.45,113.45,0,0,1,113.44,0H715.37a113.45,113.45,0,1,1,0,226.89ZM113.44,2.44a111,111,0,0,0,0,222H715.37a111,111,0,1,0,0-222Z"/><path class="cls-1" d="M691.61,214.93a63.34,63.34,0,0,1-8.21-.54c-21.7-2.84-37.68-16-45.27-23.6-16.87-16.87-25.06-42.57-23.06-72.37,2.48-37,20.69-74.48,45.33-93.28,22.29-17,45.88-11.14,60.52,0,24.62,18.76,42.84,56.21,45.33,93.2,2,29.84-6.18,55.57-23.06,72.45C727.14,206.84,709.83,214.93,691.61,214.93Zm-1.27-198c-9.15,0-18.93,2.88-28.46,10.15-24.11,18.39-42,55.16-44.38,91.5-2,29.09,6,54.12,22.35,70.49,7.38,7.37,22.88,20.16,43.86,22.9,20.45,2.68,39.88-5,57.76-22.9,16.37-16.38,24.31-41.44,22.35-70.56-2.44-36.33-20.28-73.07-44.38-91.43A48.68,48.68,0,0,0,690.34,16.93Z"/><path class="cls-1" d="M507.44,214.93a63.34,63.34,0,0,1-8.21-.54c-21.7-2.84-37.68-16-45.27-23.6-16.87-16.87-25.06-42.57-23.06-72.37,2.48-37,20.69-74.48,45.33-93.28,22.29-17,45.88-11.14,60.52,0,24.62,18.76,42.84,56.21,45.33,93.2,2,29.84-6.18,55.57-23.06,72.45C543,206.84,525.66,214.93,507.44,214.93Zm-1.27-198c-9.15,0-18.93,2.88-28.46,10.15-24.11,18.39-41.95,55.16-44.38,91.5-1.95,29.09,6,54.12,22.35,70.49,7.38,7.37,22.88,20.16,43.86,22.9,20.45,2.68,39.88-5,57.76-22.9,16.38-16.38,24.31-41.44,22.35-70.56-2.44-36.33-20.28-73.07-44.38-91.43A48.68,48.68,0,0,0,506.17,16.93Z"/><path class="cls-1" d="M322.89,215.09c-20.44,0-39.12-10.32-53.1-24.3-16.87-16.87-25.06-42.57-23.06-72.37,2.48-37,20.69-74.48,45.33-93.28,22.29-17,45.88-11.14,60.52,0,24.63,18.76,42.84,56.21,45.33,93.2,2,29.84-6.18,55.57-23.06,72.45C357.44,208.2,339.58,215.09,322.89,215.09ZM322,16.93c-9.15,0-18.93,2.88-28.46,10.15-24.11,18.39-42,55.16-44.38,91.5-1.95,29.09,6,54.12,22.35,70.49,24.57,24.56,64.16,37.46,101.62,0,16.37-16.38,24.31-41.44,22.35-70.56C393,82.18,375.2,45.44,351.1,27.08A48.68,48.68,0,0,0,322,16.93Z"/><path class="cls-1" d="M138.72,215.09c-20.44,0-39.12-10.32-53.1-24.3-16.87-16.87-25.06-42.57-23.06-72.37,2.48-37,20.7-74.48,45.33-93.28,22.3-17,45.88-11.14,60.52,0,24.63,18.76,42.84,56.21,45.34,93.2,2,29.84-6.19,55.57-23.07,72.45C173.27,208.2,155.41,215.09,138.72,215.09Zm-.89-198.16c-9.15,0-18.93,2.88-28.46,10.15C85.26,45.47,67.43,82.24,65,118.58,63,147.67,71,172.7,87.35,189.07c24.56,24.56,64.15,37.46,101.61,0,16.38-16.38,24.32-41.44,22.35-70.56C208.87,82.18,191,45.44,166.94,27.08A48.71,48.71,0,0,0,137.83,16.93Z"/><path class="cls-1" d="M691.37,227.06c-25.46,0-48.74-11.64-66.15-27.41-13.41-12.14-22.54-28.57-26.64-47.81-4.11,19.24-13.24,35.67-26.65,47.81-48.25,43.69-99.24,28.64-130.88,0-13.41-12.14-22.54-28.57-26.64-47.81-4.11,19.24-13.24,35.67-26.65,47.81-48.25,43.69-99.24,28.64-130.88,0-13.12-11.88-22.17-27.9-26.39-46.63-4.22,18.73-13.27,34.75-26.39,46.63-48.25,43.69-99.24,28.64-130.88,0-20.81-18.84-31.06-47.52-28.87-80.77,2.78-42.28,25.56-85.14,56.7-106.64,27.71-19.14,57-12.55,75.22,0,26.66,18.39,47,51.69,54.23,88.09,7.19-36.38,27.56-69.68,54.21-88.09,27.71-19.14,57-12.55,75.22,0C387,30.9,407.45,64.62,414.41,101.48c7-36.84,27.41-70.56,54.47-89.24,27.71-19.14,57-12.55,75.22,0,27.07,18.66,47.52,52.38,54.48,89.24,7-36.84,27.41-70.56,54.46-89.24,27.71-19.14,57-12.55,75.23,0C759.39,33.7,782.18,76.53,785,118.81c2.2,33.27-8.06,62-28.88,80.84C734.41,219.29,712.16,227.06,691.37,227.06Zm-92.79-90.39,1.2,8.13c3.2,21.56,12.56,39.9,27.08,53,30.84,27.92,80.56,42.59,127.6,0,20.26-18.35,30.24-46.36,28.08-78.88-2.75-41.58-25.11-83.66-55.65-104.72h0c-17.53-12.09-45.77-18.44-72.46,0-27.87,19.24-49.32,56.51-54.64,94.93l-1.21,8.73-1.21-8.73c-5.31-38.44-26.77-75.7-54.65-94.93-17.53-12.09-45.77-18.44-72.46,0-27.87,19.24-49.32,56.51-54.64,94.93l-1.21,8.73-1.21-8.73c-5.31-38.44-26.76-75.7-54.65-94.93-17.53-12.09-45.77-18.44-72.46,0-27.8,19.19-48.64,55-54.39,93.38l-1.2,8.06-1.21-8.06c-5.74-38.42-26.59-74.21-54.4-93.38-17.53-12.09-45.77-18.44-72.46,0C71.88,35.35,49.51,77.46,46.78,119c-2.14,32.49,7.83,60.48,28.08,78.81,30.84,27.92,80.56,42.59,127.6,0,14.13-12.8,23.41-30.58,26.83-51.41l1.2-7.33,1.2,7.33c3.42,20.83,12.69,38.61,26.83,51.41,30.84,27.92,80.56,42.59,127.6,0,14.52-13.15,23.88-31.49,27.08-53l1.21-8.13,1.2,8.13c3.2,21.56,12.56,39.9,27.08,53,30.84,27.92,80.56,42.59,127.6,0,14.52-13.15,23.88-31.49,27.08-53Z"/><path class="cls-1" d="M507.44,214.93a63.34,63.34,0,0,1-8.21-.54c-21.7-2.84-37.68-16-45.27-23.6-16.87-16.87-25.06-42.57-23.06-72.37,2.48-37,20.69-74.48,45.33-93.28,22.29-17,45.88-11.14,60.52,0,24.62,18.76,42.84,56.21,45.33,93.2,2,29.84-6.18,55.57-23.06,72.45C543,206.84,525.66,214.93,507.44,214.93Zm-1.27-198c-9.15,0-18.93,2.88-28.46,10.15-24.11,18.39-41.95,55.16-44.38,91.5-1.95,29.09,6,54.12,22.35,70.49,7.38,7.37,22.88,20.16,43.86,22.9,20.45,2.68,39.88-5,57.76-22.9,16.38-16.38,24.31-41.44,22.35-70.56-2.44-36.33-20.28-73.07-44.38-91.43A48.68,48.68,0,0,0,506.17,16.93Z"/><path class="cls-1" d="M322.89,215.09c-20.44,0-39.12-10.32-53.1-24.3-16.87-16.87-25.06-42.57-23.06-72.37,2.48-37,20.69-74.48,45.33-93.28,22.29-17,45.88-11.14,60.52,0,24.63,18.76,42.84,56.21,45.33,93.2,2,29.84-6.18,55.57-23.06,72.45C357.44,208.2,339.58,215.09,322.89,215.09ZM322,16.93c-9.15,0-18.93,2.88-28.46,10.15-24.11,18.39-42,55.16-44.38,91.5-1.95,29.09,6,54.12,22.35,70.49,24.57,24.56,64.16,37.46,101.62,0,16.37-16.38,24.31-41.44,22.35-70.56C393,82.18,375.2,45.44,351.1,27.08A48.68,48.68,0,0,0,322,16.93Z"/><path class="cls-1" d="M138.72,215.09c-20.44,0-39.12-10.32-53.1-24.3-16.87-16.87-25.06-42.57-23.06-72.37,2.48-37,20.7-74.48,45.33-93.28,22.3-17,45.88-11.14,60.52,0,24.63,18.76,42.84,56.21,45.34,93.2,2,29.84-6.19,55.57-23.07,72.45C173.27,208.2,155.41,215.09,138.72,215.09Zm-.89-198.16c-9.15,0-18.93,2.88-28.46,10.15C85.26,45.47,67.43,82.24,65,118.58,63,147.67,71,172.7,87.35,189.07c24.56,24.56,64.15,37.46,101.61,0,16.38-16.38,24.32-41.44,22.35-70.56C208.87,82.18,191,45.44,166.94,27.08A48.71,48.71,0,0,0,137.83,16.93Z"/><path class="cls-1" d="M322.89,215.09c-20.44,0-39.12-10.32-53.1-24.3-16.87-16.87-25.06-42.57-23.06-72.37,2.48-37,20.69-74.48,45.33-93.28,22.29-17,45.88-11.14,60.52,0,24.63,18.76,42.84,56.21,45.33,93.2,2,29.84-6.18,55.57-23.06,72.45C357.44,208.2,339.58,215.09,322.89,215.09ZM322,16.93c-9.15,0-18.93,2.88-28.46,10.15-24.11,18.39-42,55.16-44.38,91.5-1.95,29.09,6,54.12,22.35,70.49,24.57,24.56,64.16,37.46,101.62,0,16.37-16.38,24.31-41.44,22.35-70.56C393,82.18,375.2,45.44,351.1,27.08A48.68,48.68,0,0,0,322,16.93Z"/></g></g></svg>