<svg xmlns="http://www.w3.org/2000/svg" viewBox="0 0 336.24 242.8"><defs><style>.cls-1{fill:#fff;}</style></defs><g id="Layer_2" data-name="Layer 2"><g id="Layer_1-2" data-name="Layer 1"><path class="cls-1" d="M168.12,237.24A115.84,115.84,0,1,1,284,121.4,116,116,0,0,1,168.12,237.24ZM168.12,8A113.41,113.41,0,1,0,281.53,121.4,113.54,113.54,0,0,0,168.12,8Z"/><path class="cls-1" d="M190.58,242.8a1.22,1.22,0,0,1-.17-2.43c68.42-9.37,118.07-59.4,118.07-119S258.83,11.8,190.41,2.43A1.22,1.22,0,0,1,190.74,0C260.38,9.55,310.92,60.6,310.92,121.4S260.38,233.25,190.74,242.79Z"/><path class="cls-1" d="M145.66,242.8h-.16C75.86,233.25,25.32,182.2,25.32,121.4,25.32,61.1,75.39,10.11,144.37.17a1.22,1.22,0,1,1,.35,2.41C77,12.35,27.76,62.32,27.76,121.4c0,59.57,49.65,109.6,118.07,119a1.22,1.22,0,0,1-.17,2.43Z"/><path class="cls-1" d="M55,218a1.16,1.16,0,0,1-.71-.23C19.79,193.06,0,157.92,0,121.4c0-36.87,20.11-72.23,55.17-97a1.22,1.22,0,1,1,1.4,2c-34.4,24.32-54.13,59-54.13,95,0,35.73,19.42,70.14,53.28,94.41a1.22,1.22,0,0,1,.28,1.7A1.2,1.2,0,0,1,55,218Z"/><path class="cls-1" d="M281.11,218.11a1.22,1.22,0,0,1-.71-2.21c33.94-24.28,53.4-58.72,53.4-94.5,0-36-19.64-70.54-53.88-94.84a1.22,1.22,0,1,1,1.41-2c34.9,24.77,54.91,60.06,54.91,96.83,0,36.57-19.84,71.74-54.42,96.48A1.18,1.18,0,0,1,281.11,218.11Z"/></g></g></svg>